<?xml version="1.0" standalone="no"?>
<!DOCTYPE svg PUBLIC "-//W3C//DTD SVG 20010904//EN"
 "http://www.w3.org/TR/2001/REC-SVG-20010904/DTD/svg10.dtd">
<svg version="1.0" xmlns="http://www.w3.org/2000/svg"
 width="1532.000000pt" height="1327.000000pt" viewBox="0 0 1532.000000 1327.000000"
 preserveAspectRatio="xMidYMid meet">

<g transform="translate(0.000000,1327.000000) scale(0.100000,-0.100000)"
fill="#000000" stroke="none">
<path d="M4320 8485 l0 -3265 3265 0 3265 0 0 3265 0 3265 -3265 0 -3265 0 0
-3265z m3060 2290 l0 -565 -715 0 -715 0 0 -760 0 -760 -605 0 -605 0 0 1325
0 1325 1320 0 1320 0 0 -565z m1612 -207 l3 -773 723 -3 722 -2 -2 -548 -3
-547 -1317 -3 -1318 -2 0 1325 0 1325 595 0 595 0 2 -772z m1448 249 l0 -443
-28 -45 c-39 -61 -104 -115 -169 -139 -51 -19 -78 -20 -464 -20 l-410 0 3 423
3 422 28 53 c46 87 127 155 217 183 14 4 204 8 423 8 l397 1 0 -443z m-3222
-1011 c42 -20 79 -47 112 -83 l50 -55 0 -464 0 -465 -397 3 c-454 4 -445 2
-544 95 -62 58 -95 120 -109 204 -11 71 -14 782 -3 793 4 4 192 6 418 4 l410
-3 63 -29z m162 -2851 l0 -1325 -527 2 -528 3 -3 733 -2 732 -790 0 -790 0 0
590 0 590 1320 0 1320 0 0 -1325z m3058 3 l-3 -1323 -1317 -3 -1318 -2 0 510
0 510 783 2 782 3 3 813 2 812 535 0 535 0 -2 -1322z m-1663 1143 c82 -33 164
-116 193 -194 21 -56 22 -72 22 -468 l0 -410 -422 3 -423 3 -53 28 c-106 56
-174 149 -193 266 -10 66 -12 784 -2 795 4 4 190 6 413 4 401 -3 406 -3 465
-27z m-2827 -1798 l-3 -418 -27 -57 c-32 -69 -97 -136 -163 -169 l-50 -24
-425 0 -425 0 0 400 c0 294 3 411 13 442 18 60 70 132 126 174 88 67 94 68
549 68 l408 1 -3 -417z"/>
<path d="M11378 3730 c-268 -48 -446 -231 -514 -525 -15 -61 -19 -116 -18
-235 1 -138 4 -165 28 -245 47 -157 129 -272 249 -352 111 -75 194 -98 347
-98 105 0 136 4 193 23 69 24 145 74 183 120 l21 26 20 -55 c11 -30 24 -64 27
-76 7 -22 12 -23 117 -23 l109 0 0 400 0 400 -325 0 -325 0 0 -150 0 -150 120
0 c136 0 136 0 101 -77 -36 -78 -147 -122 -236 -93 -50 16 -114 75 -136 125
-49 112 -50 391 -2 528 74 208 311 192 363 -24 7 -27 15 -49 18 -49 4 0 95 9
202 20 107 11 200 20 207 20 8 0 6 21 -8 71 -56 200 -180 336 -364 395 -64 21
-105 27 -205 29 -69 2 -146 0 -172 -5z"/>
<path d="M2950 3713 c0 -5 104 -325 229 -713 l229 -705 224 -3 223 -2 200 642
c109 354 209 676 221 716 l23 72 -181 -2 -181 -3 -130 -454 c-104 -361 -133
-448 -140 -430 -9 25 -257 877 -257 885 0 2 -103 4 -230 4 -126 0 -230 -3
-230 -7z"/>
<path d="M4560 3005 l0 -715 540 0 540 0 0 170 0 170 -325 0 -325 0 0 120 0
120 260 0 260 0 0 160 0 160 -260 0 -260 0 0 105 0 105 325 0 325 0 0 160 0
160 -540 0 -540 0 0 -715z"/>
<path d="M5940 3006 l0 -716 220 0 220 0 0 275 0 275 69 0 69 0 28 -72 c15
-40 62 -163 104 -273 l76 -200 242 -3 c133 -1 242 0 242 3 0 4 -57 144 -126
313 -70 168 -122 308 -117 309 34 12 143 96 170 132 82 107 95 313 27 441 -49
94 -135 163 -252 202 -65 21 -83 22 -519 26 l-453 3 0 -715z m737 395 c55 -25
77 -67 70 -135 -3 -40 -11 -55 -35 -77 -43 -39 -90 -49 -219 -49 l-113 0 0
140 0 140 128 0 c103 0 135 -4 169 -19z"/>
<path d="M7560 3005 l0 -715 220 0 220 0 0 715 0 715 -220 0 -220 0 0 -715z"/>
<path d="M8260 3545 l0 -175 150 0 150 0 0 -540 0 -540 205 0 205 0 0 540 0
540 150 0 150 0 0 175 0 175 -505 0 -505 0 0 -175z"/>
<path d="M9765 3708 c-10 -28 -435 -1407 -435 -1413 0 -3 80 -4 177 -3 l177 3
41 135 41 135 193 0 194 0 38 -134 c21 -73 40 -135 42 -137 2 -3 103 -3 224
-2 l219 3 -221 710 -222 710 -232 3 c-180 2 -233 0 -236 -10z m250 -613 c25
-93 48 -178 51 -187 5 -16 -5 -18 -105 -18 -61 0 -111 3 -111 8 -1 25 106 388
111 379 4 -7 28 -88 54 -182z"/>
</g>
</svg>
